<svg width="199" height="144" viewBox="0 0 199 144" fill="none" xmlns="http://www.w3.org/2000/svg">
<circle cx="5" cy="5" r="5" fill="#ECC920"/>
<circle cx="32" cy="5" r="5" fill="#ECC920"/>
<circle cx="59" cy="5" r="5" fill="#ECC920"/>
<circle cx="86" cy="5" r="5" fill="#ECC920"/>
<circle cx="113" cy="5" r="5" fill="#ECC920"/>
<circle cx="140" cy="5" r="5" fill="#ECC920"/>
<circle cx="167" cy="5" r="5" fill="#ECC920"/>
<circle cx="194" cy="5" r="5" fill="#ECC920"/>
<circle cx="5" cy="32" r="5" fill="#ECC920"/>
<circle cx="32" cy="32" r="5" fill="#ECC920"/>
<circle cx="59" cy="32" r="5" fill="#ECC920"/>
<circle cx="86" cy="32" r="5" fill="#ECC920"/>
<circle cx="113" cy="32" r="5" fill="#ECC920"/>
<circle cx="140" cy="32" r="5" fill="#ECC920"/>
<circle cx="167" cy="32" r="5" fill="#ECC920"/>
<circle cx="194" cy="32" r="5" fill="#ECC920"/>
<circle cx="32" cy="32" r="5" fill="#ECC920"/>
<circle cx="59" cy="32" r="5" fill="#ECC920"/>
<circle cx="86" cy="32" r="5" fill="#ECC920"/>
<circle cx="113" cy="32" r="5" fill="#ECC920"/>
<circle cx="140" cy="32" r="5" fill="#ECC920"/>
<circle cx="167" cy="32" r="5" fill="#ECC920"/>
<circle cx="194" cy="32" r="5" fill="#ECC920"/>
<circle cx="5" cy="32" r="5" fill="#ECC920"/>
<circle cx="32" cy="32" r="5" fill="#ECC920"/>
<circle cx="5" cy="112" r="5" fill="#ECC920"/>
<circle cx="32" cy="112" r="5" fill="#ECC920"/>
<circle cx="59" cy="112" r="5" fill="#ECC920"/>
<circle cx="86" cy="112" r="5" fill="#ECC920"/>
<circle cx="113" cy="112" r="5" fill="#ECC920"/>
<circle cx="140" cy="112" r="5" fill="#ECC920"/>
<circle cx="167" cy="112" r="5" fill="#ECC920"/>
<circle cx="194" cy="112" r="5" fill="#ECC920"/>
<circle cx="5" cy="139" r="5" fill="#ECC920"/>
<circle cx="32" cy="139" r="5" fill="#ECC920"/>
<circle cx="59" cy="139" r="5" fill="#ECC920"/>
<circle cx="86" cy="139" r="5" fill="#ECC920"/>
<circle cx="113" cy="139" r="5" fill="#ECC920"/>
<circle cx="140" cy="139" r="5" fill="#ECC920"/>
<circle cx="167" cy="139" r="5" fill="#ECC920"/>
<circle cx="194" cy="139" r="5" fill="#ECC920"/>
<circle cx="32" cy="139" r="5" fill="#ECC920"/>
<circle cx="59" cy="139" r="5" fill="#ECC920"/>
<circle cx="86" cy="139" r="5" fill="#ECC920"/>
<circle cx="113" cy="139" r="5" fill="#ECC920"/>
<circle cx="140" cy="139" r="5" fill="#ECC920"/>
<circle cx="167" cy="139" r="5" fill="#ECC920"/>
<circle cx="194" cy="139" r="5" fill="#ECC920"/>
<circle cx="5" cy="139" r="5" fill="#ECC920"/>
<circle cx="32" cy="139" r="5" fill="#ECC920"/>
<circle cx="5" cy="58" r="5" fill="#ECC920"/>
<circle cx="32" cy="58" r="5" fill="#ECC920"/>
<circle cx="59" cy="58" r="5" fill="#ECC920"/>
<circle cx="86" cy="58" r="5" fill="#ECC920"/>
<circle cx="113" cy="58" r="5" fill="#ECC920"/>
<circle cx="140" cy="58" r="5" fill="#ECC920"/>
<circle cx="167" cy="58" r="5" fill="#ECC920"/>
<circle cx="194" cy="58" r="5" fill="#ECC920"/>
<circle cx="5" cy="85" r="5" fill="#ECC920"/>
<circle cx="32" cy="85" r="5" fill="#ECC920"/>
<circle cx="59" cy="85" r="5" fill="#ECC920"/>
<circle cx="86" cy="85" r="5" fill="#ECC920"/>
<circle cx="113" cy="85" r="5" fill="#ECC920"/>
<circle cx="140" cy="85" r="5" fill="#ECC920"/>
<circle cx="167" cy="85" r="5" fill="#ECC920"/>
<circle cx="194" cy="85" r="5" fill="#ECC920"/>
<circle cx="32" cy="85" r="5" fill="#ECC920"/>
<circle cx="59" cy="85" r="5" fill="#ECC920"/>
<circle cx="86" cy="85" r="5" fill="#ECC920"/>
<circle cx="113" cy="85" r="5" fill="#ECC920"/>
<circle cx="140" cy="85" r="5" fill="#ECC920"/>
<circle cx="167" cy="85" r="5" fill="#ECC920"/>
<circle cx="194" cy="85" r="5" fill="#ECC920"/>
<circle cx="5" cy="85" r="5" fill="#ECC920"/>
<circle cx="32" cy="85" r="5" fill="#ECC920"/>
</svg>
