<svg width="199" height="37" viewBox="0 0 199 37" fill="none" xmlns="http://www.w3.org/2000/svg">
<circle cx="5" cy="5" r="5" fill="#ECC920"/>
<circle cx="32" cy="5" r="5" fill="#ECC920"/>
<circle cx="59" cy="5" r="5" fill="#ECC920"/>
<circle cx="86" cy="5" r="5" fill="#ECC920"/>
<circle cx="113" cy="5" r="5" fill="#ECC920"/>
<circle cx="140" cy="5" r="5" fill="#ECC920"/>
<circle cx="167" cy="5" r="5" fill="#ECC920"/>
<circle cx="194" cy="5" r="5" fill="#ECC920"/>
<circle cx="5" cy="32" r="5" fill="#ECC920"/>
<circle cx="32" cy="32" r="5" fill="#ECC920"/>
<circle cx="59" cy="32" r="5" fill="#ECC920"/>
<circle cx="86" cy="32" r="5" fill="#ECC920"/>
<circle cx="113" cy="32" r="5" fill="#ECC920"/>
<circle cx="140" cy="32" r="5" fill="#ECC920"/>
<circle cx="167" cy="32" r="5" fill="#ECC920"/>
<circle cx="194" cy="32" r="5" fill="#ECC920"/>
<circle cx="32" cy="32" r="5" fill="#ECC920"/>
<circle cx="59" cy="32" r="5" fill="#ECC920"/>
<circle cx="86" cy="32" r="5" fill="#ECC920"/>
<circle cx="113" cy="32" r="5" fill="#ECC920"/>
<circle cx="140" cy="32" r="5" fill="#ECC920"/>
<circle cx="167" cy="32" r="5" fill="#ECC920"/>
<circle cx="194" cy="32" r="5" fill="#ECC920"/>
<circle cx="5" cy="32" r="5" fill="#ECC920"/>
<circle cx="32" cy="32" r="5" fill="#ECC920"/>
</svg>
